<?xml version="1.0" standalone="no"?>
<!DOCTYPE svg PUBLIC "-//W3C//DTD SVG 20010904//EN"
 "http://www.w3.org/TR/2001/REC-SVG-20010904/DTD/svg10.dtd">
<svg version="1.0" xmlns="http://www.w3.org/2000/svg"
 width="275.000000pt" height="183.000000pt" viewBox="0 0 275.000000 183.000000"
 preserveAspectRatio="xMidYMid meet">

<g transform="translate(0.000000,183.000000) scale(0.100000,-0.100000)"
fill="#000000" stroke="none">
<path d="M0 915 l0 -915 1375 0 1375 0 0 915 0 915 -1375 0 -1375 0 0 -915z
m1526 593 c-39 -122 -135 -300 -206 -385 -22 -26 -45 -54 -51 -60 -14 -18 -49
-16 -72 5 -19 16 -19 16 -13 -5 4 -13 3 -23 -2 -23 -11 0 -52 -126 -52 -159 0
-11 -5 -42 -11 -68 -43 -181 -78 -259 -146 -325 -48 -46 -80 -59 -124 -48
l-34 8 38 1 c47 1 83 20 122 63 23 25 24 28 5 12 -58 -50 -103 -56 -156 -24
-29 19 -45 43 -49 75 -1 6 -5 18 -9 28 -6 13 -2 28 14 49 12 17 20 38 17 49
-3 12 0 19 9 19 17 0 17 5 4 29 -9 17 -7 18 24 7 41 -14 68 -35 60 -47 -3 -5
2 -6 11 -3 10 4 15 2 13 -7 -2 -8 3 -13 11 -11 7 1 20 -3 29 -10 13 -12 14
-10 3 9 -11 21 -10 22 11 14 14 -5 33 -4 48 2 21 8 22 11 7 14 -10 3 -16 10
-14 16 2 7 -8 23 -22 36 -17 16 -20 23 -8 18 26 -10 45 2 40 24 -3 12 0 19 8
19 11 0 11 2 -1 10 -13 9 -12 12 4 25 11 8 15 15 10 15 -6 0 -11 7 -11 15 0 8
6 15 14 15 7 0 13 5 13 10 0 6 -6 10 -13 10 -7 0 -22 7 -33 15 -18 15 -17 16
12 10 21 -4 35 -1 44 10 10 13 9 15 -6 15 -18 1 -18 1 -1 11 10 6 28 8 40 5
19 -4 17 -1 -8 20 l-30 25 27 -10 c18 -7 34 -6 52 2 27 13 34 27 14 27 -7 0
-3 6 8 14 26 18 41 87 50 227 8 142 -9 179 -86 179 -36 0 -136 -78 -133 -104
0 -11 -4 -15 -14 -12 -8 3 -11 1 -8 -4 3 -5 -6 -28 -21 -52 -42 -66 -45 -88
-15 -116 23 -20 23 -22 4 -13 -31 16 -35 14 -28 -11 5 -19 0 -16 -24 12 -34
39 -40 84 -16 115 31 41 56 69 49 55 -4 -8 20 13 53 47 61 64 127 102 173 103
14 0 39 -9 57 -20 39 -23 93 -114 93 -156 0 -17 -22 -77 -50 -133 -40 -82 -47
-103 -35 -107 26 -10 65 5 65 25 0 10 7 24 15 31 22 18 122 182 161 263 18 37
37 73 42 80 5 7 17 33 27 60 28 74 29 49 1 -35z m-553 15 c-3 -27 -10 -55 -15
-63 -9 -15 -3 54 8 93 10 33 14 17 7 -30z m58 -249 l24 -27 -27 18 c-16 9 -28
21 -28 26 0 14 5 11 31 -17z m109 -44 c11 -8 7 -9 -15 -4 -37 8 -45 14 -19 14
10 0 26 -5 34 -10z m874 -102 c54 -57 109 -119 122 -138 13 -19 35 -51 49 -70
49 -67 65 -95 65 -110 0 -17 -96 -83 -109 -75 -5 3 -12 -2 -15 -11 -3 -8 -10
-12 -16 -9 -5 3 -10 2 -10 -4 0 -5 -16 -15 -35 -22 -19 -7 -35 -16 -35 -19 0
-4 -16 -12 -35 -20 -19 -8 -35 -17 -35 -20 0 -3 -16 -12 -35 -20 -19 -8 -35
-17 -35 -21 0 -4 -16 -13 -35 -20 -19 -7 -35 -16 -35 -19 0 -3 -30 -22 -67
-41 -38 -18 -70 -37 -73 -40 -3 -4 -20 -10 -37 -14 -18 -3 -33 -11 -33 -17 0
-6 -3 -9 -6 -5 -3 3 -25 -2 -47 -12 -36 -15 -177 -52 -257 -67 -19 -4 -22 -2
-10 6 13 8 13 10 -2 10 -10 0 -18 5 -18 10 0 6 8 10 18 10 9 1 44 14 77 31 47
23 53 28 28 24 -36 -5 -48 11 -28 39 15 19 61 14 49 -6 -4 -7 -2 -8 4 -4 8 4
8 15 2 31 -7 18 -5 25 6 29 9 3 20 4 24 1 12 -7 61 16 55 26 -3 4 17 15 45 24
41 14 56 14 86 5 19 -7 38 -10 40 -7 3 3 -4 8 -17 12 -17 6 -19 9 -8 16 11 7
10 9 -3 9 -10 0 -18 5 -18 11 0 5 -5 7 -12 3 -7 -4 -23 -9 -36 -10 -17 -2 -22
1 -18 12 3 8 2 13 -2 11 -4 -3 -7 10 -8 29 0 27 2 31 13 23 7 -7 13 -17 13
-24 0 -25 28 -24 34 1 4 14 11 22 16 19 26 -16 -5 44 -32 64 -26 18 -8 37 20
22 15 -8 23 -7 32 4 7 9 10 18 6 22 -3 3 -6 1 -6 -5 0 -9 -6 -9 -25 0 -30 14
-13 30 21 22 12 -3 25 -1 29 6 9 14 -14 42 -30 36 -6 -2 -12 2 -12 8 0 7 20
23 44 36 24 12 43 28 43 34 0 23 -25 46 -67 60 -24 8 -53 25 -65 37 l-23 21
40 -21 c22 -12 48 -21 58 -21 15 0 17 6 12 38 -4 20 -9 44 -11 53 -6 22 8 31
94 62 40 15 85 34 100 42 15 8 34 14 42 15 8 0 59 -46 114 -102z m-976 -14
c-3 -14 -7 -10 -16 16 -12 32 -11 34 4 19 9 -9 14 -25 12 -35z m-108 -49 c10
-12 10 -15 -3 -15 -8 0 -17 7 -21 15 -3 8 -2 15 3 15 5 0 14 -7 21 -15z m35
-75 c8 -13 -44 2 -56 16 -9 12 -6 12 20 3 17 -6 33 -14 36 -19z m405 2 c0 -5
-10 -19 -22 -31 -11 -13 -24 -37 -28 -55 -7 -29 -8 -29 -9 -5 -1 14 11 42 27
62 29 39 32 42 32 29z m-394 -47 c19 -15 19 -15 -1 -12 -11 2 -29 8 -40 15
-20 11 -20 11 1 12 11 0 29 -7 40 -15z m-28 -82 c-10 -2 -26 -2 -35 0 -10 3
-2 5 17 5 19 0 27 -2 18 -5z m2 -63 c8 -5 11 -10 5 -10 -5 0 -17 5 -25 10 -8
5 -10 10 -5 10 6 0 17 -5 25 -10z m367 -37 c-3 -10 -5 -4 -5 12 0 17 2 24 5
18 2 -7 2 -21 0 -30z m266 -21 c3 8 9 3 15 -12 14 -36 5 -38 -26 -5 -15 16
-20 23 -10 16 13 -9 17 -9 21 1z m-39 -108 c9 -24 7 -34 -6 -34 -7 0 -14 11
-14 25 -2 28 11 34 20 9z m-208 -173 c-10 -15 -43 -19 -43 -5 0 8 11 14 24 14
13 0 22 -4 19 -9z"/>
<path d="M1840 1087 c-35 -15 -36 -17 -20 -27 9 -6 17 -5 22 3 5 9 12 7 25 -7
17 -18 17 -18 -7 -11 -22 7 -23 6 -11 -9 16 -19 35 -21 50 -3 8 11 5 17 -13
27 -14 7 -22 18 -19 26 6 16 6 16 -27 1z"/>
<path d="M1690 1070 c0 -5 5 -10 10 -10 6 0 10 5 10 10 0 6 -4 10 -10 10 -5 0
-10 -4 -10 -10z"/>
<path d="M1750 1062 c0 -11 90 -56 98 -48 10 11 -26 40 -51 41 -13 1 -28 5
-35 9 -7 4 -12 3 -12 -2z"/>
<path d="M2000 951 c0 -7 -4 -9 -10 -6 -6 4 -7 -1 -3 -11 6 -15 7 -15 15 1 6
9 7 19 4 22 -3 4 -6 1 -6 -6z"/>
<path d="M1960 920 c0 -5 5 -10 11 -10 5 0 7 5 4 10 -3 6 -8 10 -11 10 -2 0
-4 -4 -4 -10z"/>
<path d="M1940 899 c0 -7 -2 -10 -5 -7 -3 3 -28 -17 -56 -43 -27 -27 -57 -49
-66 -49 -13 0 -14 -3 -5 -12 7 -7 12 -17 12 -22 0 -6 -9 3 -20 19 -11 17 -17
38 -14 48 3 9 1 17 -5 17 -6 0 -11 -6 -12 -12 0 -7 -2 -20 -3 -28 -7 -32 13
-60 40 -60 32 0 65 26 58 45 -3 7 -1 16 5 20 6 3 11 0 11 -7 1 -7 11 0 24 16
14 16 23 34 22 40 -2 6 -1 8 1 4 8 -14 21 -8 26 12 3 11 1 23 -4 26 -5 3 -9 0
-9 -7z m-86 -116 c-5 -5 -12 -12 -16 -18 -4 -6 -8 -2 -8 8 0 9 7 17 17 17 9 0
12 -3 7 -7z"/>
<path d="M1675 870 c3 -5 8 -10 11 -10 2 0 4 5 4 10 0 6 -5 10 -11 10 -5 0 -7
-4 -4 -10z"/>
</g>
</svg>
